<?xml version="1.0" encoding="UTF-8" standalone="no"?>
<svg
   width="120mm"
   height="120mm"
   viewBox="0 0 453.5433 453.54329"
   version="1.1"
   id="svg34"
   sodipodi:docname="logo.svg"
   inkscape:version="1.1.2 (0a00cf5339, 2022-02-04)"
   xmlns:inkscape="http://www.inkscape.org/namespaces/inkscape"
   xmlns:sodipodi="http://sodipodi.sourceforge.net/DTD/sodipodi-0.dtd"
   xmlns="http://www.w3.org/2000/svg"
   xmlns:svg="http://www.w3.org/2000/svg">
  <defs
     id="defs38" />
  <sodipodi:namedview
     id="namedview36"
     pagecolor="#ffffff"
     bordercolor="#666666"
     borderopacity="1.0"
     inkscape:pageshadow="2"
     inkscape:pageopacity="0.0"
     inkscape:pagecheckerboard="0"
     showgrid="false"
     inkscape:zoom="1.1384419"
     inkscape:cx="356.62777"
     inkscape:cy="328.95837"
     inkscape:window-width="2560"
     inkscape:window-height="1375"
     inkscape:window-x="0"
     inkscape:window-y="0"
     inkscape:window-maximized="1"
     inkscape:current-layer="svg34"
     fit-margin-top="0"
     fit-margin-left="0"
     fit-margin-right="0"
     fit-margin-bottom="0"
     units="mm"
     inkscape:document-units="mm" />
  <g
     fill="none"
     fill-rule="evenodd"
     id="g32"
     transform="translate(7215.9961,20574.359)">
    <path
       fill="#ffffff"
       d="m 99,52 h 84 V 86 H 99 Z"
       id="path2" />
    <path
       d="M 23,163 C 15.602,163 9.157,158.973 5.697,153 A 19.886,19.886 0 0 0 3,163 c 0,11.046 8.954,20 20,20 h 20 v -20 z"
       fill="#3ecc5f"
       id="path4" />
    <path
       d="M 112.98,57.376 183,53 V 43 C 183,31.954 174.046,23 163,23 H 73 l -2.5,-4.33 c -1.112,-1.925 -3.889,-1.925 -5,0 L 63,23 60.5,18.67 c -1.111,-1.925 -3.889,-1.925 -5,0 L 53,23 50.5,18.67 c -1.111,-1.925 -3.889,-1.925 -5,0 L 43,23 c -0.022,0 -0.042,0.003 -0.065,0.003 l -4.142,-4.141 c -1.57,-1.571 -4.252,-0.853 -4.828,1.294 l -1.369,5.104 -5.192,-1.392 c -2.148,-0.575 -4.111,1.389 -3.535,3.536 l 1.39,5.193 -5.102,1.367 c -2.148,0.576 -2.867,3.259 -1.296,4.83 l 4.142,4.142 C 23.003,42.957 23,42.978 23,43 l -4.33,2.5 c -1.925,1.111 -1.925,3.889 0,5 L 23,53 18.67,55.5 c -1.925,1.111 -1.925,3.889 0,5 L 23,63 18.67,65.5 c -1.925,1.111 -1.925,3.889 0,5 L 23,73 18.67,75.5 c -1.925,1.111 -1.925,3.889 0,5 L 23,83 18.67,85.5 c -1.925,1.111 -1.925,3.889 0,5 L 23,93 18.67,95.5 c -1.925,1.111 -1.925,3.889 0,5 l 4.33,2.5 -4.33,2.5 c -1.925,1.111 -1.925,3.889 0,5 l 4.33,2.5 -4.33,2.5 c -1.925,1.111 -1.925,3.889 0,5 l 4.33,2.5 -4.33,2.5 c -1.925,1.111 -1.925,3.889 0,5 l 4.33,2.5 -4.33,2.5 c -1.925,1.111 -1.925,3.889 0,5 l 4.33,2.5 -4.33,2.5 c -1.925,1.111 -1.925,3.889 0,5 l 4.33,2.5 -4.33,2.5 c -1.925,1.111 -1.925,3.889 0,5 L 23,163 c 0,11.046 8.954,20 20,20 h 120 c 11.046,0 20,-8.954 20,-20 V 83 L 112.98,78.624 A 10.645,10.645 0 0 1 103,68 c 0,-5.621 4.37,-10.273 9.98,-10.624"
       fill="#3ecc5f"
       id="path6" />
    <path
       fill="#3ecc5f"
       d="m 143,183 h 30 v -40 h -30 z"
       id="path8" />
    <path
       d="m 193,158 c -0.219,0 -0.428,0.037 -0.639,0.064 -0.038,-0.15 -0.074,-0.301 -0.116,-0.451 A 5,5 0 0 0 190.32,148 a 4.96,4.96 0 0 0 -3.016,1.036 26.531,26.531 0 0 0 -0.335,-0.336 4.955,4.955 0 0 0 1.011,-2.987 5,5 0 0 0 -9.599,-1.959 c -0.148,-0.042 -0.297,-0.077 -0.445,-0.115 0.027,-0.211 0.064,-0.42 0.064,-0.639 a 5,5 0 0 0 -5,-5 5,5 0 0 0 -5,5 c 0,0.219 0.037,0.428 0.064,0.639 -0.148,0.038 -0.297,0.073 -0.445,0.115 a 4.998,4.998 0 0 0 -9.599,1.959 c 0,1.125 0.384,2.151 1.011,2.987 -3.717,3.632 -6.031,8.693 -6.031,14.3 0,11.046 8.954,20 20,20 9.339,0 17.16,-6.41 19.361,-15.064 0.211,0.027 0.42,0.064 0.639,0.064 a 5,5 0 0 0 5,-5 5,5 0 0 0 -5,-5"
       fill="#44d860"
       id="path10" />
    <path
       fill="#3ecc5f"
       d="m 153,123 h 30 v -20 h -30 z"
       id="path12" />
    <path
       d="m 193,115.5 a 2.5,2.5 0 1 0 0,-5 c -0.109,0 -0.214,0.019 -0.319,0.032 -0.02,-0.075 -0.037,-0.15 -0.058,-0.225 A 2.501,2.501 0 0 0 191.66,105.5 c -0.569,0 -1.088,0.197 -1.508,0.518 a 6.653,6.653 0 0 0 -0.168,-0.168 c 0.314,-0.417 0.506,-0.931 0.506,-1.494 a 2.5,2.5 0 0 0 -4.8,-0.979 A 9.987,9.987 0 0 0 183,103 c -5.522,0 -10,4.478 -10,10 0,5.522 4.478,10 10,10 0.934,0 1.833,-0.138 2.69,-0.377 a 2.5,2.5 0 0 0 4.8,-0.979 c 0,-0.563 -0.192,-1.077 -0.506,-1.494 0.057,-0.055 0.113,-0.111 0.168,-0.168 0.42,0.321 0.939,0.518 1.508,0.518 a 2.5,2.5 0 0 0 0.963,-4.807 c 0.021,-0.074 0.038,-0.15 0.058,-0.225 0.105,0.013 0.21,0.032 0.319,0.032"
       fill="#44d860"
       id="path14" />
    <path
       d="M 63,55.5 A 2.5,2.5 0 0 1 60.5,53 c 0,-4.136 -3.364,-7.5 -7.5,-7.5 -4.136,0 -7.5,3.364 -7.5,7.5 a 2.5,2.5 0 1 1 -5,0 c 0,-6.893 5.607,-12.5 12.5,-12.5 6.893,0 12.5,5.607 12.5,12.5 A 2.5,2.5 0 0 1 63,55.5"
       fill="#000000"
       id="path16" />
    <path
       d="m 103,183 h 60 c 11.046,0 20,-8.954 20,-20 V 93 h -60 c -11.046,0 -20,8.954 -20,20 z"
       fill="#ffff50"
       id="path18" />
    <path
       d="m 168.02,124 h -50.04 a 1,1 0 1 1 0,-2 h 50.04 a 1,1 0 1 1 0,2 m 0,20 h -50.04 a 1,1 0 1 1 0,-2 h 50.04 a 1,1 0 1 1 0,2 m 0,20 h -50.04 a 1,1 0 1 1 0,-2 h 50.04 a 1,1 0 1 1 0,2 m 0,-49.814 h -50.04 a 1,1 0 1 1 0,-2 h 50.04 a 1,1 0 1 1 0,2 m 0,19.814 h -50.04 a 1,1 0 1 1 0,-2 h 50.04 a 1,1 0 1 1 0,2 m 0,20 h -50.04 a 1,1 0 1 1 0,-2 h 50.04 a 1,1 0 1 1 0,2 M 183,61.611 c -0.012,0 -0.022,-0.006 -0.034,-0.005 -3.09,0.105 -4.552,3.196 -5.842,5.923 -1.346,2.85 -2.387,4.703 -4.093,4.647 -1.889,-0.068 -2.969,-2.202 -4.113,-4.46 -1.314,-2.594 -2.814,-5.536 -5.963,-5.426 -3.046,0.104 -4.513,2.794 -5.807,5.167 -1.377,2.528 -2.314,4.065 -4.121,3.994 -1.927,-0.07 -2.951,-1.805 -4.136,-3.813 -1.321,-2.236 -2.848,-4.75 -5.936,-4.664 -2.994,0.103 -4.465,2.385 -5.763,4.4 -1.373,2.13 -2.335,3.428 -4.165,3.351 -1.973,-0.07 -2.992,-1.51 -4.171,-3.177 -1.324,-1.873 -2.816,-3.993 -5.895,-3.89 -2.928,0.1 -4.399,1.97 -5.696,3.618 -1.232,1.564 -2.194,2.802 -4.229,2.724 a 1.0006478,1.0006478 0 0 0 -0.072,2 c 3.017,0.101 4.545,-1.8 5.872,-3.487 1.177,-1.496 2.193,-2.787 4.193,-2.855 1.926,-0.082 2.829,1.115 4.195,3.045 1.297,1.834 2.769,3.914 5.731,4.021 3.103,0.104 4.596,-2.215 5.918,-4.267 1.182,-1.834 2.202,-3.417 4.15,-3.484 1.793,-0.067 2.769,1.35 4.145,3.681 1.297,2.197 2.766,4.686 5.787,4.796 3.125,0.108 4.634,-2.62 5.949,-5.035 1.139,-2.088 2.214,-4.06 4.119,-4.126 1.793,-0.042 2.728,1.595 4.111,4.33 1.292,2.553 2.757,5.445 5.825,5.556 l 0.169,0.003 c 3.064,0 4.518,-3.075 5.805,-5.794 1.139,-2.41 2.217,-4.68 4.067,-4.773 z"
       fill="#000000"
       id="path20" />
    <path
       fill="#3ecc5f"
       d="m 83,183 h 40 V 143 H 83 Z"
       id="path22" />
    <path
       d="m 143,158 c -0.219,0 -0.428,0.037 -0.639,0.064 -0.038,-0.15 -0.074,-0.301 -0.116,-0.451 A 5,5 0 0 0 140.32,148 a 4.96,4.96 0 0 0 -3.016,1.036 26.531,26.531 0 0 0 -0.335,-0.336 4.955,4.955 0 0 0 1.011,-2.987 5,5 0 0 0 -9.599,-1.959 c -0.148,-0.042 -0.297,-0.077 -0.445,-0.115 0.027,-0.211 0.064,-0.42 0.064,-0.639 a 5,5 0 0 0 -5,-5 5,5 0 0 0 -5,5 c 0,0.219 0.037,0.428 0.064,0.639 -0.148,0.038 -0.297,0.073 -0.445,0.115 a 4.998,4.998 0 0 0 -9.599,1.959 c 0,1.125 0.384,2.151 1.011,2.987 -3.717,3.632 -6.031,8.693 -6.031,14.3 0,11.046 8.954,20 20,20 9.339,0 17.16,-6.41 19.361,-15.064 0.211,0.027 0.42,0.064 0.639,0.064 a 5,5 0 0 0 5,-5 5,5 0 0 0 -5,-5"
       fill="#44d860"
       id="path24" />
    <path
       fill="#3ecc5f"
       d="m 83,123 h 40 V 103 H 83 Z"
       id="path26" />
    <path
       d="m 133,115.5 a 2.5,2.5 0 1 0 0,-5 c -0.109,0 -0.214,0.019 -0.319,0.032 -0.02,-0.075 -0.037,-0.15 -0.058,-0.225 A 2.501,2.501 0 0 0 131.66,105.5 c -0.569,0 -1.088,0.197 -1.508,0.518 a 6.653,6.653 0 0 0 -0.168,-0.168 c 0.314,-0.417 0.506,-0.931 0.506,-1.494 a 2.5,2.5 0 0 0 -4.8,-0.979 A 9.987,9.987 0 0 0 123,103 c -5.522,0 -10,4.478 -10,10 0,5.522 4.478,10 10,10 0.934,0 1.833,-0.138 2.69,-0.377 a 2.5,2.5 0 0 0 4.8,-0.979 c 0,-0.563 -0.192,-1.077 -0.506,-1.494 0.057,-0.055 0.113,-0.111 0.168,-0.168 0.42,0.321 0.939,0.518 1.508,0.518 a 2.5,2.5 0 0 0 0.963,-4.807 c 0.021,-0.074 0.038,-0.15 0.058,-0.225 0.105,0.013 0.21,0.032 0.319,0.032"
       fill="#44d860"
       id="path28" />
    <path
       d="m 143,41.75 c -0.16,0 -0.33,-0.02 -0.49,-0.05 a 2.52,2.52 0 0 1 -0.47,-0.14 c -0.15,-0.06 -0.29,-0.14 -0.431,-0.23 -0.13,-0.09 -0.259,-0.2 -0.38,-0.31 -0.109,-0.12 -0.219,-0.24 -0.309,-0.38 -0.09,-0.14 -0.17,-0.28 -0.231,-0.43 A 2.619,2.619 0 0 1 140.5,39.25 c 0,-0.16 0.02,-0.33 0.05,-0.49 0.03,-0.16 0.08,-0.31 0.139,-0.47 0.061,-0.15 0.141,-0.29 0.231,-0.43 0.09,-0.13 0.2,-0.26 0.309,-0.38 0.121,-0.11 0.25,-0.22 0.38,-0.31 0.141,-0.09 0.281,-0.17 0.431,-0.23 0.149,-0.06 0.31,-0.11 0.47,-0.14 0.32,-0.07 0.65,-0.07 0.98,0 0.159,0.03 0.32,0.08 0.47,0.14 0.149,0.06 0.29,0.14 0.43,0.23 0.13,0.09 0.259,0.2 0.38,0.31 0.11,0.12 0.22,0.25 0.31,0.38 0.09,0.14 0.17,0.28 0.23,0.43 0.06,0.16 0.11,0.31 0.14,0.47 0.029,0.16 0.05,0.33 0.05,0.49 0,0.66 -0.271,1.31 -0.73,1.77 -0.121,0.11 -0.25,0.22 -0.38,0.31 -0.14,0.09 -0.281,0.17 -0.43,0.23 A 2.565,2.565 0 0 1 143,41.75 m 20,-1.25 c -0.66,0 -1.3,-0.27 -1.771,-0.73 a 3.802,3.802 0 0 1 -0.309,-0.38 c -0.09,-0.14 -0.17,-0.28 -0.231,-0.43 A 2.619,2.619 0 0 1 160.5,38 c 0,-0.66 0.27,-1.3 0.729,-1.77 0.121,-0.11 0.25,-0.22 0.38,-0.31 0.141,-0.09 0.281,-0.17 0.431,-0.23 0.149,-0.06 0.31,-0.11 0.47,-0.14 0.32,-0.07 0.66,-0.07 0.98,0 0.159,0.03 0.32,0.08 0.47,0.14 0.149,0.06 0.29,0.14 0.43,0.23 0.13,0.09 0.259,0.2 0.38,0.31 0.459,0.47 0.73,1.11 0.73,1.77 0,0.16 -0.021,0.33 -0.05,0.49 -0.03,0.16 -0.08,0.32 -0.14,0.47 -0.07,0.15 -0.14,0.29 -0.23,0.43 -0.09,0.13 -0.2,0.26 -0.31,0.38 -0.121,0.11 -0.25,0.22 -0.38,0.31 -0.14,0.09 -0.281,0.17 -0.43,0.23 A 2.565,2.565 0 0 1 163,40.5"
       fill="#000000"
       id="path30" />
  </g>
  <path
     sodipodi:type="spiral"
     style="fill:none;fill-rule:evenodd;stroke:#000000;stroke-width:3.77952756;stroke-miterlimit:4;stroke-dasharray:none"
     id="path1029"
     sodipodi:cx="278.63312"
     sodipodi:cy="160.34486"
     sodipodi:expansion="1"
     sodipodi:revolution="3"
     sodipodi:radius="99.753983"
     sodipodi:argument="-18.076977"
     sodipodi:t0="0"
     d="m 278.63312,160.34486 c 3.58164,3.49098 -2.93871,6.55031 -5.80223,5.95293 -7.75997,-1.61886 -9.13095,-11.51425 -6.10362,-17.55738 5.41517,-10.80974 19.81857,-12.25261 29.31253,-6.25432 13.93277,8.80273 15.46508,28.23492 6.40502,41.06769 -12.07563,17.10405 -36.69096,18.71612 -52.82284,6.55571 -20.30032,-15.30263 -21.98712,-45.1659 -6.70642,-64.57799 18.50698,-23.51065 53.65148,-25.26965 76.33315,-6.85712 26.72957,21.69854 28.55943,62.14369 7.00781,88.08831 -24.88219,29.95409 -70.64032,31.85404 -99.84345,7.15851 -33.18246,-28.06064 -35.15204,-79.14007 -7.30921,-111.59862 31.23545,-36.413579 87.64208,-38.452477 123.35377,-7.459899 39.64674,34.407639 41.75476,96.145799 7.6106,135.108919" />
  <path
     sodipodi:type="star"
     style="fill:#000000;fill-opacity:1;stroke:#000000;stroke-width:2;stroke-linecap:round;stroke-miterlimit:4;stroke-dasharray:none"
     id="path1234"
     inkscape:flatsided="false"
     sodipodi:sides="5"
     sodipodi:cx="158.24053"
     sodipodi:cy="325.45928"
     sodipodi:r1="66.748779"
     sodipodi:r2="33.37439"
     sodipodi:arg1="0.94897204"
     sodipodi:arg2="1.5772906"
     inkscape:rounded="0"
     inkscape:randomized="0"
     d="m 197.12295,379.71384 -39.09917,-20.88086 -39.36707,20.37127 7.77658,-43.63806 -31.539336,-31.14524 43.905356,-6.08894 19.87469,-39.62009 19.35843,39.87489 43.82257,6.65867 -31.94119,30.73298 z"
     inkscape:transform-center-x="-0.13394269"
     inkscape:transform-center-y="-6.2464711" />
  <path
     sodipodi:type="star"
     style="fill:#000000;fill-opacity:1;stroke:#000000;stroke-width:2;stroke-linecap:round;stroke-miterlimit:4;stroke-dasharray:none"
     id="path1234-2"
     inkscape:flatsided="false"
     sodipodi:sides="5"
     sodipodi:cx="215.33611"
     sodipodi:cy="313.16177"
     sodipodi:r1="66.748779"
     sodipodi:r2="33.37439"
     sodipodi:arg1="0.94897204"
     sodipodi:arg2="1.5772906"
     inkscape:rounded="0"
     inkscape:randomized="0"
     inkscape:transform-center-x="-0.13394269"
     inkscape:transform-center-y="-6.2464711"
     d="m 254.21853,367.41632 -39.09917,-20.88086 -39.36707,20.37128 7.77658,-43.63806 -31.53933,-31.14524 43.90535,-6.08894 19.8747,-39.6201 19.35842,39.87489 43.82257,6.65868 -31.94119,30.73297 z"
     transform="translate(-92.4995,-181.97203)" />
  <path
     sodipodi:type="star"
     style="fill:#000000;fill-opacity:1;stroke:#000000;stroke-width:2;stroke-linecap:round;stroke-miterlimit:4;stroke-dasharray:none"
     id="path1234-1"
     inkscape:flatsided="false"
     sodipodi:sides="5"
     sodipodi:cx="215.33611"
     sodipodi:cy="313.16177"
     sodipodi:r1="66.748779"
     sodipodi:r2="33.37439"
     sodipodi:arg1="0.94897204"
     sodipodi:arg2="1.5772906"
     inkscape:rounded="0"
     inkscape:randomized="0"
     inkscape:transform-center-x="-0.07567895"
     inkscape:transform-center-y="-3.5293523"
     d="m 254.21853,367.41632 -39.09917,-20.88086 -39.36707,20.37128 7.77658,-43.63806 -31.53933,-31.14524 43.90535,-6.08894 19.8747,-39.6201 19.35842,39.87489 43.82257,6.65868 -31.94119,30.73297 z"
     transform="matrix(0.56501549,0,0,0.56501549,194.03599,126.21738)" />
</svg>
