<?xml version="1.0" encoding="UTF-8" standalone="no"?>
<svg
   width="421.6647mm"
   height="90.499336mm"
   viewBox="0 0 1593.6933 342.04473"
   version="1.1"
   id="svg34"
   sodipodi:docname="logo.svg"
   inkscape:version="1.1.2 (0a00cf5339, 2022-02-04)"
   xmlns:inkscape="http://www.inkscape.org/namespaces/inkscape"
   xmlns:sodipodi="http://sodipodi.sourceforge.net/DTD/sodipodi-0.dtd"
   xmlns="http://www.w3.org/2000/svg"
   xmlns:svg="http://www.w3.org/2000/svg">
  <defs
     id="defs38" />
  <sodipodi:namedview
     id="namedview36"
     pagecolor="#ffffff"
     bordercolor="#666666"
     borderopacity="1.0"
     inkscape:pageshadow="2"
     inkscape:pageopacity="0.0"
     inkscape:pagecheckerboard="0"
     showgrid="false"
     inkscape:zoom="0.32"
     inkscape:cx="-1212.5"
     inkscape:cy="645.3125"
     inkscape:window-width="2560"
     inkscape:window-height="1375"
     inkscape:window-x="0"
     inkscape:window-y="0"
     inkscape:window-maximized="1"
     inkscape:current-layer="svg34"
     fit-margin-top="3"
     fit-margin-left="5"
     fit-margin-right="5"
     fit-margin-bottom="3"
     units="mm"
     inkscape:document-units="mm" />
  <path
     sodipodi:type="spiral"
     style="fill:none;fill-rule:evenodd;stroke:#000000;stroke-width:3.77953;stroke-miterlimit:4;stroke-dasharray:none"
     id="path1029"
     sodipodi:cx="240.1851"
     sodipodi:cy="109.50056"
     sodipodi:expansion="1"
     sodipodi:revolution="3"
     sodipodi:radius="99.753983"
     sodipodi:argument="-18.076977"
     sodipodi:t0="0"
     d="m 240.1851,109.50056 c 3.58165,3.49097 -2.9387,6.5503 -5.80222,5.95292 -7.75997,-1.61886 -9.13095,-11.51425 -6.10363,-17.557379 5.41518,-10.809737 19.81858,-12.25261 29.31254,-6.254321 13.93277,8.80273 15.46507,28.23492 6.40502,41.06769 -12.07563,17.10406 -36.69097,18.71613 -52.82285,6.55572 -20.30032,-15.30264 -21.98711,-45.165906 -6.70641,-64.578001 18.50698,-23.510648 53.65148,-25.26965 76.33315,-6.857112 26.72957,21.698539 28.55943,62.143683 7.00781,88.088303 -24.8822,29.95409 -70.64032,31.85404 -99.84346,7.15851 -33.18246,-28.06064 -35.15203,-79.140066 -7.3092,-111.598613 31.23544,-36.413583 87.64207,-38.452481 123.35376,-7.459903 39.64674,34.407636 41.75477,96.145796 7.6106,135.108916" />
  <path
     sodipodi:type="star"
     style="fill:#000000;fill-opacity:1;stroke:#000000;stroke-width:2;stroke-linecap:round;stroke-miterlimit:4;stroke-dasharray:none"
     id="path1234"
     inkscape:flatsided="false"
     sodipodi:sides="5"
     sodipodi:cx="119.79251"
     sodipodi:cy="274.61499"
     sodipodi:r1="66.748779"
     sodipodi:r2="33.37439"
     sodipodi:arg1="0.94897204"
     sodipodi:arg2="1.5772906"
     inkscape:rounded="0"
     inkscape:randomized="0"
     d="m 158.67494,328.86954 -39.09917,-20.88086 -39.367072,20.37128 7.776575,-43.63807 -31.539332,-31.14524 43.905359,-6.08894 19.87469,-39.62009 19.35843,39.87489 43.82257,6.65867 -31.94119,30.73298 z"
     inkscape:transform-center-x="-0.13394269"
     inkscape:transform-center-y="-6.2464711" />
  <path
     sodipodi:type="star"
     style="fill:#000000;fill-opacity:1;stroke:#000000;stroke-width:2;stroke-linecap:round;stroke-miterlimit:4;stroke-dasharray:none"
     id="path1234-2"
     inkscape:flatsided="false"
     sodipodi:sides="5"
     sodipodi:cx="215.33611"
     sodipodi:cy="313.16177"
     sodipodi:r1="66.748779"
     sodipodi:r2="33.37439"
     sodipodi:arg1="0.94897204"
     sodipodi:arg2="1.5772906"
     inkscape:rounded="0"
     inkscape:randomized="0"
     inkscape:transform-center-x="-0.13394269"
     inkscape:transform-center-y="-6.2464711"
     d="m 254.21853,367.41632 -39.09917,-20.88086 -39.36707,20.37128 7.77658,-43.63806 -31.53933,-31.14524 43.90535,-6.08894 19.8747,-39.6201 19.35842,39.87489 43.82257,6.65868 -31.94119,30.73297 z"
     transform="translate(-130.94752,-232.81632)" />
  <path
     sodipodi:type="star"
     style="fill:#000000;fill-opacity:1;stroke:#000000;stroke-width:2;stroke-linecap:round;stroke-miterlimit:4;stroke-dasharray:none"
     id="path1234-1"
     inkscape:flatsided="false"
     sodipodi:sides="5"
     sodipodi:cx="215.33611"
     sodipodi:cy="313.16177"
     sodipodi:r1="66.748779"
     sodipodi:r2="33.37439"
     sodipodi:arg1="0.94897204"
     sodipodi:arg2="1.5772906"
     inkscape:rounded="0"
     inkscape:randomized="0"
     inkscape:transform-center-x="-0.07567895"
     inkscape:transform-center-y="-3.5293523"
     d="m 254.21853,367.41632 -39.09917,-20.88086 -39.36707,20.37128 7.77658,-43.63806 -31.53933,-31.14524 43.90535,-6.08894 19.8747,-39.6201 19.35842,39.87489 43.82257,6.65868 -31.94119,30.73297 z"
     transform="matrix(0.56501549,0,0,0.56501549,155.58798,75.373093)" />
  <text
     xml:space="preserve"
     style="font-style:normal;font-variant:normal;font-weight:normal;font-stretch:normal;font-size:160px;line-height:1.25;font-family:'EB Garamond SC';-inkscape-font-specification:'EB Garamond SC, Normal';font-variant-ligatures:normal;font-variant-caps:normal;font-variant-numeric:normal;font-variant-east-asian:normal;text-align:start;letter-spacing:0px;word-spacing:0px;writing-mode:lr-tb;text-anchor:start;fill:#000000;fill-opacity:1;stroke:none"
     x="376.39575"
     y="112.43695"
     id="text2096"><tspan
       sodipodi:role="line"
       id="tspan2094"
       x="376.39575"
       y="112.43695">Transient Array</tspan><tspan
       sodipodi:role="line"
       x="376.39575"
       y="312.43695"
       id="tspan2098">Radio Telescope</tspan></text>
</svg>
